<?xml version="1.0" encoding="UTF-8"?>
<!DOCTYPE svg PUBLIC "-//W3C//DTD SVG 1.1//EN" "http://www.w3.org/Graphics/SVG/1.1/DTD/svg11.dtd">
<!-- Creator: CorelDRAW 2019 (64-Bit) -->
<svg xmlns="http://www.w3.org/2000/svg" xml:space="preserve" width="10.9325mm" height="10.9325mm" version="1.1" style="shape-rendering:geometricPrecision; text-rendering:geometricPrecision; image-rendering:optimizeQuality; fill-rule:evenodd; clip-rule:evenodd"
viewBox="0 0 28.56 28.56"
 xmlns:xlink="http://www.w3.org/1999/xlink"
 xmlns:xodm="http://www.corel.com/coreldraw/odm/2003">
 <defs>
  <style type="text/css">
   <![CDATA[
    .fil3 {fill:url(#id0)}
    .fil6 {fill:url(#id1)}
    .fil1 {fill:url(#id2)}
    .fil5 {fill:url(#id3)}
    .fil0 {fill:url(#id4)}
    .fil7 {fill:url(#id5)}
    .fil4 {fill:url(#id6)}
    .fil2 {fill:url(#id7)}
   ]]>
  </style>
  <linearGradient id="id0" gradientUnits="userSpaceOnUse" x1="17.11" y1="14.35" x2="11.6" y2="13.76">
   <stop offset="0" style="stop-opacity:1; stop-color:#00BBF2"/>
   <stop offset="1" style="stop-opacity:1; stop-color:#5169B0"/>
  </linearGradient>
  <linearGradient id="id1" gradientUnits="userSpaceOnUse" xlink:href="#id0" x1="22.76" y1="14.35" x2="17.25" y2="13.76">
  </linearGradient>
  <linearGradient id="id2" gradientUnits="userSpaceOnUse" x1="3.34" y1="13.43" x2="22.81" y2="32.91">
   <stop offset="0" style="stop-opacity:1; stop-color:#5169B0"/>
   <stop offset="1" style="stop-opacity:1; stop-color:#00BBF2"/>
  </linearGradient>
  <linearGradient id="id3" gradientUnits="userSpaceOnUse" xlink:href="#id0" x1="18.86" y1="17.37" x2="13.8" y2="12.64">
  </linearGradient>
  <linearGradient id="id4" gradientUnits="userSpaceOnUse" x1="13.43" y1="3.34" x2="32.91" y2="22.81">
   <stop offset="0" style="stop-opacity:1; stop-color:#C268A8"/>
   <stop offset="1" style="stop-opacity:1; stop-color:#5169B0"/>
  </linearGradient>
  <linearGradient id="id5" gradientUnits="userSpaceOnUse" x1="16.9" y1="15.94" x2="12.88" y2="13.49">
   <stop offset="0" style="stop-opacity:1; stop-color:#C268A8"/>
   <stop offset="0.168627" style="stop-opacity:1; stop-color:#AC65A8"/>
   <stop offset="1" style="stop-opacity:1; stop-color:#5169B0"/>
  </linearGradient>
  <linearGradient id="id6" gradientUnits="userSpaceOnUse" xlink:href="#id5" x1="11.26" y1="15.94" x2="7.23" y2="13.49">
  </linearGradient>
  <linearGradient id="id7" gradientUnits="userSpaceOnUse" xlink:href="#id0" x1="13.21" y1="17.37" x2="8.15" y2="12.64">
  </linearGradient>
 </defs>
 <g id="Capa_x0020_1">
  <metadata id="CorelCorpID_0Corel-Layer"/>
  <g id="_1124475696">
   <path class="fil0" d="M28.56 14.28c0,-7.87 -6.4,-14.28 -14.28,-14.28l0 4.37c5.46,0 9.91,4.44 9.91,9.91 0,2.73 -1.11,5.21 -2.91,7l7.08 7.08 -2.26 -6.09c1.55,-2.28 2.45,-5.04 2.45,-8z"/>
   <path class="fil1" d="M14.28 24.19c-5.46,0 -9.91,-4.45 -9.91,-9.91l-4.37 0c0,7.87 6.4,14.28 14.28,14.28 2.96,0 5.71,-0.91 7.99,-2.45l6.09 2.26 -7.08 -7.08c-1.79,1.79 -4.27,2.91 -7,2.91z"/>
   <g>
    <g>
     <polygon class="fil2" points="9.76,18.21 7.34,18.21 9.76,15.79 "/>
     <path class="fil3" d="M15.37 13.48l0 4.73 -2.38 0 0 -4.66c0,-0.34 -0.04,-0.64 -0.1,-0.89l1.74 -1.74c0.48,0.65 0.73,1.51 0.73,2.56z"/>
     <path class="fil4" d="M12.89 12.66c-0.21,-0.82 -0.75,-1.16 -1.51,-1.16 -1.01,0 -1.62,0.59 -1.62,2.05l0 2.24 -2.41 2.41 0 -4.73c0,-2.55 1.49,-3.98 4.01,-3.98 1.48,0 2.6,0.49 3.28,1.42l-1.74 1.74z"/>
    </g>
    <g>
     <polygon class="fil5" points="15.41,18.21 12.99,18.21 15.41,15.79 "/>
     <path class="fil6" d="M21.02 13.48l0 4.73 -2.38 0 0 -4.66c0,-0.34 -0.04,-0.64 -0.1,-0.89l1.74 -1.74c0.48,0.65 0.73,1.51 0.73,2.56z"/>
     <path class="fil7" d="M18.54 12.66c-0.21,-0.82 -0.75,-1.16 -1.51,-1.16 -1.01,0 -1.62,0.59 -1.62,2.05l0 2.24 -2.41 2.41 0 -4.73c0,-2.55 1.49,-3.98 4.01,-3.98 1.48,0 2.6,0.49 3.28,1.42l-1.74 1.74z"/>
    </g>
   </g>
  </g>
 </g>
</svg>
